M48
; DRILL file KiCad 10.0.4 date 2026-09-20T19:44:33
; FORMAT={-:-/ absolute / metric / decimal}
; #@! TF.CreationDate,2026-09-20T19:44:33+10:00
; #@! TF.GenerationSoftware,Kicad,Pcbnew,10.0.4
; #@! TF.FileFunction,Plated,1,2,PTH
FMAT,2
METRIC
; #@! TA.AperFunction,Plated,PTH,ViaDrill
T1C0.300
; #@! TA.AperFunction,Plated,PTH,ComponentDrill
T2C0.889
; #@! TA.AperFunction,Plated,PTH,ComponentDrill
T3C1.000
; #@! TA.AperFunction,Plated,PTH,ComponentDrill
T4C1.500
%
G90
G05
T1
X136.5Y-111.5
T2
X141.38Y-106.38
X141.38Y-108.92
X141.38Y-111.46
X141.38Y-114.0
X141.38Y-116.54
X141.38Y-119.08
X141.38Y-121.62
X156.62Y-106.38
X156.62Y-108.92
X156.62Y-111.46
X156.62Y-114.0
X156.62Y-116.54
X156.62Y-119.08
X156.62Y-121.62
T3
X112.0Y-121.5
X114.54Y-121.5
X117.08Y-121.5
X119.62Y-121.5
X122.16Y-121.5
X124.7Y-121.5
X127.24Y-121.5
X129.78Y-121.5
X180.5Y-113.7
X180.5Y-121.3
T4
X114.69Y-131.46
X121.04Y-128.92
X133.69Y-131.46
X140.04Y-128.92
X152.77Y-131.46
X159.12Y-128.92
X171.77Y-131.46
X178.12Y-128.92
M30
