%TF.GenerationSoftware,KiCad,Pcbnew,10.0.4*%
%TF.CreationDate,2026-09-20T19:44:29+10:00*%
%TF.ProjectId,Blare alarm,426c6172-6520-4616-9c61-726d2e6b6963,rev?*%
%TF.SameCoordinates,Original*%
%TF.FileFunction,Legend,Bot*%
%TF.FilePolarity,Positive*%
%FSLAX46Y46*%
G04 Gerber Fmt 4.6, Leading zero omitted, Abs format (unit mm)*
G04 Created by KiCad (PCBNEW 10.0.4) date 2026-09-20 19:44:29*
%MOMM*%
%LPD*%
G01*
G04 APERTURE LIST*
%ADD10C,0.150000*%
%ADD11C,0.101600*%
%ADD12C,0.120000*%
%ADD13C,0.127000*%
%ADD14C,0.100000*%
%ADD15C,0.504000*%
G04 APERTURE END LIST*
D10*
X132004819Y-121166666D02*
X132719104Y-121166666D01*
X132719104Y-121166666D02*
X132861961Y-121119047D01*
X132861961Y-121119047D02*
X132957200Y-121023809D01*
X132957200Y-121023809D02*
X133004819Y-120880952D01*
X133004819Y-120880952D02*
X133004819Y-120785714D01*
X133004819Y-122166666D02*
X133004819Y-121595238D01*
X133004819Y-121880952D02*
X132004819Y-121880952D01*
X132004819Y-121880952D02*
X132147676Y-121785714D01*
X132147676Y-121785714D02*
X132242914Y-121690476D01*
X132242914Y-121690476D02*
X132290533Y-121595238D01*
D11*
X159621520Y-114758809D02*
X159107473Y-114758809D01*
X159107473Y-114758809D02*
X159046997Y-114728571D01*
X159046997Y-114728571D02*
X159016759Y-114698333D01*
X159016759Y-114698333D02*
X158986520Y-114637857D01*
X158986520Y-114637857D02*
X158986520Y-114516904D01*
X158986520Y-114516904D02*
X159016759Y-114456428D01*
X159016759Y-114456428D02*
X159046997Y-114426190D01*
X159046997Y-114426190D02*
X159107473Y-114395952D01*
X159107473Y-114395952D02*
X159621520Y-114395952D01*
X158986520Y-113760952D02*
X158986520Y-114123809D01*
X158986520Y-113942381D02*
X159621520Y-113942381D01*
X159621520Y-113942381D02*
X159530806Y-114002857D01*
X159530806Y-114002857D02*
X159470330Y-114063333D01*
X159470330Y-114063333D02*
X159440092Y-114123809D01*
D10*
X173231009Y-116619047D02*
X173278628Y-116761904D01*
X173278628Y-116761904D02*
X173326247Y-116809523D01*
X173326247Y-116809523D02*
X173421485Y-116857142D01*
X173421485Y-116857142D02*
X173564342Y-116857142D01*
X173564342Y-116857142D02*
X173659580Y-116809523D01*
X173659580Y-116809523D02*
X173707200Y-116761904D01*
X173707200Y-116761904D02*
X173754819Y-116666666D01*
X173754819Y-116666666D02*
X173754819Y-116285714D01*
X173754819Y-116285714D02*
X172754819Y-116285714D01*
X172754819Y-116285714D02*
X172754819Y-116619047D01*
X172754819Y-116619047D02*
X172802438Y-116714285D01*
X172802438Y-116714285D02*
X172850057Y-116761904D01*
X172850057Y-116761904D02*
X172945295Y-116809523D01*
X172945295Y-116809523D02*
X173040533Y-116809523D01*
X173040533Y-116809523D02*
X173135771Y-116761904D01*
X173135771Y-116761904D02*
X173183390Y-116714285D01*
X173183390Y-116714285D02*
X173231009Y-116619047D01*
X173231009Y-116619047D02*
X173231009Y-116285714D01*
X172754819Y-117190476D02*
X172754819Y-117857142D01*
X172754819Y-117857142D02*
X173754819Y-117190476D01*
X173754819Y-117190476D02*
X173754819Y-117857142D01*
X173754819Y-118761904D02*
X173754819Y-118190476D01*
X173754819Y-118476190D02*
X172754819Y-118476190D01*
X172754819Y-118476190D02*
X172897676Y-118380952D01*
X172897676Y-118380952D02*
X172992914Y-118285714D01*
X172992914Y-118285714D02*
X173040533Y-118190476D01*
X178033866Y-113309048D02*
X178033866Y-114070953D01*
X178414819Y-113690000D02*
X177652914Y-113690000D01*
%TO.C,J1*%
D12*
X110670000Y-122830000D02*
X110670000Y-120170000D01*
X128510000Y-120170000D02*
X110670000Y-120170000D01*
X128510000Y-122830000D02*
X110670000Y-122830000D01*
X128510000Y-122830000D02*
X128510000Y-120170000D01*
X131110000Y-120170000D02*
X129780000Y-120170000D01*
X131110000Y-121500000D02*
X131110000Y-120170000D01*
%TO.C,U1*%
D13*
X140110000Y-122509000D02*
X140110000Y-105364000D01*
D14*
X142015000Y-103459000D02*
X155985000Y-103459000D01*
D13*
X142015000Y-103459000D02*
X155985000Y-103459000D01*
X144496000Y-102449000D02*
X144496000Y-103459000D01*
X152991272Y-101949000D02*
X144996000Y-101949000D01*
X153495000Y-103459000D02*
X153491272Y-102448728D01*
X155985000Y-124414000D02*
X142015000Y-124414000D01*
X157890000Y-122509000D02*
X157890000Y-105364000D01*
X140110000Y-105364000D02*
G75*
G02*
X142015000Y-103459000I1905000J0D01*
G01*
X142015000Y-124414000D02*
G75*
G02*
X140110000Y-122509000I1J1905001D01*
G01*
X144496000Y-102449000D02*
G75*
G02*
X144996000Y-101949000I500000J0D01*
G01*
X152991272Y-101949000D02*
G75*
G02*
X153491300Y-102448728I28J-500000D01*
G01*
X155985000Y-103459000D02*
G75*
G02*
X157890000Y-105364000I0J-1905000D01*
G01*
X157890000Y-122509000D02*
G75*
G02*
X155985000Y-124414000I-1905001J1D01*
G01*
D15*
X157109000Y-104630000D02*
G75*
G02*
X156605000Y-104630000I-252000J0D01*
G01*
X156605000Y-104630000D02*
G75*
G02*
X157109000Y-104630000I252000J0D01*
G01*
X158252000Y-103750000D02*
G75*
G02*
X157748000Y-103750000I-252000J0D01*
G01*
X157748000Y-103750000D02*
G75*
G02*
X158252000Y-103750000I252000J0D01*
G01*
%TO.C,BZ1*%
D12*
X186600000Y-117500000D02*
G75*
G02*
X174400000Y-117500000I-6100000J0D01*
G01*
X174400000Y-117500000D02*
G75*
G02*
X186600000Y-117500000I6100000J0D01*
G01*
%TD*%
M02*
