ISO-10303-21;
HEADER;
/* Generated by software containing ST-Developer
 * from STEP Tools, Inc. (www.steptools.com) 
 */
/* OPTION: using custom renumber hook */

FILE_DESCRIPTION(
/* description */ ('STEP AP242 Edition 2',
'CAx-IF Rec.Pracs.---Representation and Presentation of Product Manufa
cturing Information (PMI)---4.0---2014-10-13',
'CAx-IF Rec.Pracs.---3D Tessellated Geometry---0.4---2014-09-14','2;1',
'CAx-IF Rec.Pracs.---User Defined Attributes---1.5---2016-08-15'),
/* implementation_level */ '2;1');

FILE_NAME(
/* name */ 'Part Studio 1 Copy 1 - Part 9',
/* time_stamp */ '2026-09-20T09:49:16Z',
/* author */ (''),
/* organization */ (''),
/* preprocessor_version */ 'ST-DEVELOPER v20',
/* originating_system */ 'ONSHAPE BY PTC INC, 1.221',
/* authorisation */ '  ');

FILE_SCHEMA (('AP242_MANAGED_MODEL_BASED_3D_ENGINEERING_MIM_LF { 1 0 10303 442 3 1 4 }'));
ENDSEC;

DATA;
#10=SHAPE_REPRESENTATION_RELATIONSHIP('','',#359,#11);
#11=ADVANCED_BREP_SHAPE_REPRESENTATION('',(#357),#589);
#12=CIRCLE('',#369,0.0016);
#13=CIRCLE('',#370,0.0016);
#14=CIRCLE('',#372,0.0016);
#15=CIRCLE('',#373,0.0016);
#16=CIRCLE('',#375,0.0016);
#17=CIRCLE('',#376,0.0016);
#18=CIRCLE('',#378,0.0016);
#19=CIRCLE('',#379,0.0016);
#20=CIRCLE('',#382,0.00381);
#21=CIRCLE('',#383,0.00381);
#22=CIRCLE('',#384,0.00381);
#23=CIRCLE('',#385,0.00381);
#24=CIRCLE('',#387,0.00381);
#25=CIRCLE('',#388,0.00381);
#26=CIRCLE('',#389,0.00381);
#27=CIRCLE('',#390,0.00381);
#28=CYLINDRICAL_SURFACE('',#368,0.0016);
#29=CYLINDRICAL_SURFACE('',#371,0.0016);
#30=CYLINDRICAL_SURFACE('',#374,0.0016);
#31=CYLINDRICAL_SURFACE('',#377,0.0016);
#32=CYLINDRICAL_SURFACE('',#391,0.00381);
#33=CYLINDRICAL_SURFACE('',#392,0.00381);
#34=CYLINDRICAL_SURFACE('',#393,0.00381);
#35=CYLINDRICAL_SURFACE('',#394,0.00381);
#36=ORIENTED_EDGE('',*,*,#124,.T.);
#37=ORIENTED_EDGE('',*,*,#125,.T.);
#38=ORIENTED_EDGE('',*,*,#126,.F.);
#39=ORIENTED_EDGE('',*,*,#127,.T.);
#40=ORIENTED_EDGE('',*,*,#128,.T.);
#41=ORIENTED_EDGE('',*,*,#129,.T.);
#42=ORIENTED_EDGE('',*,*,#130,.F.);
#43=ORIENTED_EDGE('',*,*,#131,.T.);
#44=ORIENTED_EDGE('',*,*,#132,.T.);
#45=ORIENTED_EDGE('',*,*,#133,.T.);
#46=ORIENTED_EDGE('',*,*,#134,.F.);
#47=ORIENTED_EDGE('',*,*,#135,.T.);
#48=ORIENTED_EDGE('',*,*,#136,.F.);
#49=ORIENTED_EDGE('',*,*,#137,.F.);
#50=ORIENTED_EDGE('',*,*,#138,.T.);
#51=ORIENTED_EDGE('',*,*,#139,.T.);
#52=ORIENTED_EDGE('',*,*,#140,.T.);
#53=ORIENTED_EDGE('',*,*,#141,.F.);
#54=ORIENTED_EDGE('',*,*,#142,.F.);
#55=ORIENTED_EDGE('',*,*,#137,.T.);
#56=ORIENTED_EDGE('',*,*,#143,.T.);
#57=ORIENTED_EDGE('',*,*,#144,.F.);
#58=ORIENTED_EDGE('',*,*,#145,.F.);
#59=ORIENTED_EDGE('',*,*,#141,.T.);
#60=ORIENTED_EDGE('',*,*,#146,.F.);
#61=ORIENTED_EDGE('',*,*,#139,.F.);
#62=ORIENTED_EDGE('',*,*,#147,.T.);
#63=ORIENTED_EDGE('',*,*,#144,.T.);
#64=ORIENTED_EDGE('',*,*,#148,.T.);
#65=ORIENTED_EDGE('',*,*,#149,.F.);
#66=ORIENTED_EDGE('',*,*,#150,.T.);
#67=ORIENTED_EDGE('',*,*,#151,.F.);
#68=ORIENTED_EDGE('',*,*,#152,.T.);
#69=ORIENTED_EDGE('',*,*,#153,.F.);
#70=ORIENTED_EDGE('',*,*,#154,.T.);
#71=ORIENTED_EDGE('',*,*,#155,.F.);
#72=ORIENTED_EDGE('',*,*,#156,.T.);
#73=ORIENTED_EDGE('',*,*,#157,.T.);
#74=ORIENTED_EDGE('',*,*,#158,.F.);
#75=ORIENTED_EDGE('',*,*,#159,.T.);
#76=ORIENTED_EDGE('',*,*,#154,.F.);
#77=ORIENTED_EDGE('',*,*,#152,.F.);
#78=ORIENTED_EDGE('',*,*,#150,.F.);
#79=ORIENTED_EDGE('',*,*,#148,.F.);
#80=ORIENTED_EDGE('',*,*,#138,.F.);
#81=ORIENTED_EDGE('',*,*,#142,.T.);
#82=ORIENTED_EDGE('',*,*,#145,.T.);
#83=ORIENTED_EDGE('',*,*,#147,.F.);
#84=ORIENTED_EDGE('',*,*,#134,.T.);
#85=ORIENTED_EDGE('',*,*,#160,.T.);
#86=ORIENTED_EDGE('',*,*,#156,.F.);
#87=ORIENTED_EDGE('',*,*,#161,.T.);
#88=ORIENTED_EDGE('',*,*,#124,.F.);
#89=ORIENTED_EDGE('',*,*,#162,.T.);
#90=ORIENTED_EDGE('',*,*,#130,.T.);
#91=ORIENTED_EDGE('',*,*,#163,.T.);
#92=ORIENTED_EDGE('',*,*,#155,.T.);
#93=ORIENTED_EDGE('',*,*,#153,.T.);
#94=ORIENTED_EDGE('',*,*,#151,.T.);
#95=ORIENTED_EDGE('',*,*,#149,.T.);
#96=ORIENTED_EDGE('',*,*,#136,.T.);
#97=ORIENTED_EDGE('',*,*,#146,.T.);
#98=ORIENTED_EDGE('',*,*,#143,.F.);
#99=ORIENTED_EDGE('',*,*,#140,.F.);
#100=ORIENTED_EDGE('',*,*,#158,.T.);
#101=ORIENTED_EDGE('',*,*,#164,.T.);
#102=ORIENTED_EDGE('',*,*,#132,.F.);
#103=ORIENTED_EDGE('',*,*,#165,.T.);
#104=ORIENTED_EDGE('',*,*,#128,.F.);
#105=ORIENTED_EDGE('',*,*,#166,.T.);
#106=ORIENTED_EDGE('',*,*,#126,.T.);
#107=ORIENTED_EDGE('',*,*,#167,.T.);
#108=ORIENTED_EDGE('',*,*,#160,.F.);
#109=ORIENTED_EDGE('',*,*,#133,.F.);
#110=ORIENTED_EDGE('',*,*,#164,.F.);
#111=ORIENTED_EDGE('',*,*,#157,.F.);
#112=ORIENTED_EDGE('',*,*,#161,.F.);
#113=ORIENTED_EDGE('',*,*,#159,.F.);
#114=ORIENTED_EDGE('',*,*,#167,.F.);
#115=ORIENTED_EDGE('',*,*,#125,.F.);
#116=ORIENTED_EDGE('',*,*,#163,.F.);
#117=ORIENTED_EDGE('',*,*,#129,.F.);
#118=ORIENTED_EDGE('',*,*,#165,.F.);
#119=ORIENTED_EDGE('',*,*,#135,.F.);
#120=ORIENTED_EDGE('',*,*,#162,.F.);
#121=ORIENTED_EDGE('',*,*,#127,.F.);
#122=ORIENTED_EDGE('',*,*,#166,.F.);
#123=ORIENTED_EDGE('',*,*,#131,.F.);
#124=EDGE_CURVE('',#168,#169,#200,.T.);
#125=EDGE_CURVE('',#169,#170,#201,.T.);
#126=EDGE_CURVE('',#171,#170,#202,.T.);
#127=EDGE_CURVE('',#171,#168,#203,.F.);
#128=EDGE_CURVE('',#172,#173,#204,.T.);
#129=EDGE_CURVE('',#173,#174,#205,.F.);
#130=EDGE_CURVE('',#175,#174,#206,.T.);
#131=EDGE_CURVE('',#175,#172,#207,.T.);
#132=EDGE_CURVE('',#176,#177,#208,.T.);
#133=EDGE_CURVE('',#177,#178,#209,.F.);
#134=EDGE_CURVE('',#179,#178,#210,.T.);
#135=EDGE_CURVE('',#179,#176,#211,.T.);
#136=EDGE_CURVE('',#180,#181,#212,.T.);
#137=EDGE_CURVE('',#182,#180,#213,.T.);
#138=EDGE_CURVE('',#182,#183,#214,.T.);
#139=EDGE_CURVE('',#183,#181,#215,.T.);
#140=EDGE_CURVE('',#180,#184,#216,.T.);
#141=EDGE_CURVE('',#185,#184,#217,.T.);
#142=EDGE_CURVE('',#182,#185,#218,.T.);
#143=EDGE_CURVE('',#184,#186,#219,.T.);
#144=EDGE_CURVE('',#187,#186,#220,.T.);
#145=EDGE_CURVE('',#185,#187,#221,.T.);
#146=EDGE_CURVE('',#181,#186,#222,.T.);
#147=EDGE_CURVE('',#183,#187,#223,.T.);
#148=EDGE_CURVE('',#188,#188,#12,.T.);
#149=EDGE_CURVE('',#189,#189,#13,.T.);
#150=EDGE_CURVE('',#190,#190,#14,.T.);
#151=EDGE_CURVE('',#191,#191,#15,.T.);
#152=EDGE_CURVE('',#192,#192,#16,.T.);
#153=EDGE_CURVE('',#193,#193,#17,.T.);
#154=EDGE_CURVE('',#194,#194,#18,.T.);
#155=EDGE_CURVE('',#195,#195,#19,.T.);
#156=EDGE_CURVE('',#196,#197,#224,.T.);
#157=EDGE_CURVE('',#197,#198,#225,.T.);
#158=EDGE_CURVE('',#199,#198,#226,.T.);
#159=EDGE_CURVE('',#199,#196,#227,.F.);
#160=EDGE_CURVE('',#178,#197,#20,.T.);
#161=EDGE_CURVE('',#196,#169,#21,.T.);
#162=EDGE_CURVE('',#168,#175,#22,.T.);
#163=EDGE_CURVE('',#174,#179,#23,.T.);
#164=EDGE_CURVE('',#198,#177,#24,.F.);
#165=EDGE_CURVE('',#176,#173,#25,.F.);
#166=EDGE_CURVE('',#172,#171,#26,.F.);
#167=EDGE_CURVE('',#170,#199,#27,.F.);
#168=VERTEX_POINT('',#496);
#169=VERTEX_POINT('',#497);
#170=VERTEX_POINT('',#499);
#171=VERTEX_POINT('',#501);
#172=VERTEX_POINT('',#505);
#173=VERTEX_POINT('',#506);
#174=VERTEX_POINT('',#508);
#175=VERTEX_POINT('',#510);
#176=VERTEX_POINT('',#514);
#177=VERTEX_POINT('',#515);
#178=VERTEX_POINT('',#517);
#179=VERTEX_POINT('',#519);
#180=VERTEX_POINT('',#523);
#181=VERTEX_POINT('',#524);
#182=VERTEX_POINT('',#526);
#183=VERTEX_POINT('',#528);
#184=VERTEX_POINT('',#532);
#185=VERTEX_POINT('',#534);
#186=VERTEX_POINT('',#538);
#187=VERTEX_POINT('',#540);
#188=VERTEX_POINT('',#547);
#189=VERTEX_POINT('',#549);
#190=VERTEX_POINT('',#552);
#191=VERTEX_POINT('',#554);
#192=VERTEX_POINT('',#557);
#193=VERTEX_POINT('',#559);
#194=VERTEX_POINT('',#562);
#195=VERTEX_POINT('',#564);
#196=VERTEX_POINT('',#567);
#197=VERTEX_POINT('',#568);
#198=VERTEX_POINT('',#570);
#199=VERTEX_POINT('',#572);
#200=LINE('',#495,#228);
#201=LINE('',#498,#229);
#202=LINE('',#500,#230);
#203=LINE('',#502,#231);
#204=LINE('',#504,#232);
#205=LINE('',#507,#233);
#206=LINE('',#509,#234);
#207=LINE('',#511,#235);
#208=LINE('',#513,#236);
#209=LINE('',#516,#237);
#210=LINE('',#518,#238);
#211=LINE('',#520,#239);
#212=LINE('',#522,#240);
#213=LINE('',#525,#241);
#214=LINE('',#527,#242);
#215=LINE('',#529,#243);
#216=LINE('',#531,#244);
#217=LINE('',#533,#245);
#218=LINE('',#535,#246);
#219=LINE('',#537,#247);
#220=LINE('',#539,#248);
#221=LINE('',#541,#249);
#222=LINE('',#543,#250);
#223=LINE('',#544,#251);
#224=LINE('',#566,#252);
#225=LINE('',#569,#253);
#226=LINE('',#571,#254);
#227=LINE('',#573,#255);
#228=VECTOR('',#399,1.);
#229=VECTOR('',#400,1.);
#230=VECTOR('',#401,1.);
#231=VECTOR('',#402,1.);
#232=VECTOR('',#405,1.);
#233=VECTOR('',#406,1.);
#234=VECTOR('',#407,1.);
#235=VECTOR('',#408,1.);
#236=VECTOR('',#411,1.);
#237=VECTOR('',#412,1.);
#238=VECTOR('',#413,1.);
#239=VECTOR('',#414,1.);
#240=VECTOR('',#417,1.);
#241=VECTOR('',#418,1.);
#242=VECTOR('',#419,1.);
#243=VECTOR('',#420,1.);
#244=VECTOR('',#423,1.);
#245=VECTOR('',#424,1.);
#246=VECTOR('',#425,1.);
#247=VECTOR('',#428,1.);
#248=VECTOR('',#429,1.);
#249=VECTOR('',#430,1.);
#250=VECTOR('',#433,1.);
#251=VECTOR('',#434,1.);
#252=VECTOR('',#461,1.);
#253=VECTOR('',#462,1.);
#254=VECTOR('',#463,1.);
#255=VECTOR('',#464,1.);
#256=EDGE_LOOP('',(#36,#37,#38,#39));
#257=EDGE_LOOP('',(#40,#41,#42,#43));
#258=EDGE_LOOP('',(#44,#45,#46,#47));
#259=EDGE_LOOP('',(#48,#49,#50,#51));
#260=EDGE_LOOP('',(#52,#53,#54,#55));
#261=EDGE_LOOP('',(#56,#57,#58,#59));
#262=EDGE_LOOP('',(#60,#61,#62,#63));
#263=EDGE_LOOP('',(#64));
#264=EDGE_LOOP('',(#65));
#265=EDGE_LOOP('',(#66));
#266=EDGE_LOOP('',(#67));
#267=EDGE_LOOP('',(#68));
#268=EDGE_LOOP('',(#69));
#269=EDGE_LOOP('',(#70));
#270=EDGE_LOOP('',(#71));
#271=EDGE_LOOP('',(#72,#73,#74,#75));
#272=EDGE_LOOP('',(#76));
#273=EDGE_LOOP('',(#77));
#274=EDGE_LOOP('',(#78));
#275=EDGE_LOOP('',(#79));
#276=EDGE_LOOP('',(#80,#81,#82,#83));
#277=EDGE_LOOP('',(#84,#85,#86,#87,#88,#89,#90,#91));
#278=EDGE_LOOP('',(#92));
#279=EDGE_LOOP('',(#93));
#280=EDGE_LOOP('',(#94));
#281=EDGE_LOOP('',(#95));
#282=EDGE_LOOP('',(#96,#97,#98,#99));
#283=EDGE_LOOP('',(#100,#101,#102,#103,#104,#105,#106,#107));
#284=EDGE_LOOP('',(#108,#109,#110,#111));
#285=EDGE_LOOP('',(#112,#113,#114,#115));
#286=EDGE_LOOP('',(#116,#117,#118,#119));
#287=EDGE_LOOP('',(#120,#121,#122,#123));
#288=FACE_BOUND('',#256,.T.);
#289=FACE_BOUND('',#257,.T.);
#290=FACE_BOUND('',#258,.T.);
#291=FACE_BOUND('',#259,.T.);
#292=FACE_BOUND('',#260,.T.);
#293=FACE_BOUND('',#261,.T.);
#294=FACE_BOUND('',#262,.T.);
#295=FACE_BOUND('',#263,.T.);
#296=FACE_BOUND('',#264,.T.);
#297=FACE_BOUND('',#265,.T.);
#298=FACE_BOUND('',#266,.T.);
#299=FACE_BOUND('',#267,.T.);
#300=FACE_BOUND('',#268,.T.);
#301=FACE_BOUND('',#269,.T.);
#302=FACE_BOUND('',#270,.T.);
#303=FACE_BOUND('',#271,.T.);
#304=FACE_BOUND('',#272,.T.);
#305=FACE_BOUND('',#273,.T.);
#306=FACE_BOUND('',#274,.T.);
#307=FACE_BOUND('',#275,.T.);
#308=FACE_BOUND('',#276,.T.);
#309=FACE_BOUND('',#277,.T.);
#310=FACE_BOUND('',#278,.T.);
#311=FACE_BOUND('',#279,.T.);
#312=FACE_BOUND('',#280,.T.);
#313=FACE_BOUND('',#281,.T.);
#314=FACE_BOUND('',#282,.T.);
#315=FACE_BOUND('',#283,.T.);
#316=FACE_BOUND('',#284,.T.);
#317=FACE_BOUND('',#285,.T.);
#318=FACE_BOUND('',#286,.T.);
#319=FACE_BOUND('',#287,.T.);
#320=PLANE('',#361);
#321=PLANE('',#362);
#322=PLANE('',#363);
#323=PLANE('',#364);
#324=PLANE('',#365);
#325=PLANE('',#366);
#326=PLANE('',#367);
#327=PLANE('',#380);
#328=PLANE('',#381);
#329=PLANE('',#386);
#330=ADVANCED_FACE('',(#288),#320,.T.);
#331=ADVANCED_FACE('',(#289),#321,.F.);
#332=ADVANCED_FACE('',(#290),#322,.F.);
#333=ADVANCED_FACE('',(#291),#323,.T.);
#334=ADVANCED_FACE('',(#292),#324,.F.);
#335=ADVANCED_FACE('',(#293),#325,.F.);
#336=ADVANCED_FACE('',(#294),#326,.T.);
#337=ADVANCED_FACE('',(#295,#296),#28,.F.);
#338=ADVANCED_FACE('',(#297,#298),#29,.F.);
#339=ADVANCED_FACE('',(#299,#300),#30,.F.);
#340=ADVANCED_FACE('',(#301,#302),#31,.F.);
#341=ADVANCED_FACE('',(#303),#327,.T.);
#342=ADVANCED_FACE('',(#304,#305,#306,#307,#308,#309),#328,.T.);
#343=ADVANCED_FACE('',(#310,#311,#312,#313,#314,#315),#329,.F.);
#344=ADVANCED_FACE('',(#316),#32,.T.);
#345=ADVANCED_FACE('',(#317),#33,.T.);
#346=ADVANCED_FACE('',(#318),#34,.T.);
#347=ADVANCED_FACE('',(#319),#35,.T.);
#348=CLOSED_SHELL('',(#330,#331,#332,#333,#334,#335,#336,#337,#338,#339,
#340,#341,#342,#343,#344,#345,#346,#347));
#349=STYLED_ITEM('',(#350),#357);
#350=PRESENTATION_STYLE_ASSIGNMENT((#351));
#351=SURFACE_STYLE_USAGE(.BOTH.,#352);
#352=SURFACE_SIDE_STYLE('',(#353));
#353=SURFACE_STYLE_FILL_AREA(#354);
#354=FILL_AREA_STYLE('',(#355));
#355=FILL_AREA_STYLE_COLOUR('',#356);
#356=COLOUR_RGB('',0.541176470588235,0.682352941176471,0.83921568627451);
#357=MANIFOLD_SOLID_BREP('Part 9',#348);
#358=SHAPE_DEFINITION_REPRESENTATION(#594,#359);
#359=SHAPE_REPRESENTATION('Part 9',(#360),#589);
#360=AXIS2_PLACEMENT_3D('',#493,#395,#396);
#361=AXIS2_PLACEMENT_3D('',#494,#397,#398);
#362=AXIS2_PLACEMENT_3D('',#503,#403,#404);
#363=AXIS2_PLACEMENT_3D('',#512,#409,#410);
#364=AXIS2_PLACEMENT_3D('',#521,#415,#416);
#365=AXIS2_PLACEMENT_3D('',#530,#421,#422);
#366=AXIS2_PLACEMENT_3D('',#536,#426,#427);
#367=AXIS2_PLACEMENT_3D('',#542,#431,#432);
#368=AXIS2_PLACEMENT_3D('',#545,#435,#436);
#369=AXIS2_PLACEMENT_3D('',#546,#437,#438);
#370=AXIS2_PLACEMENT_3D('',#548,#439,#440);
#371=AXIS2_PLACEMENT_3D('',#550,#441,#442);
#372=AXIS2_PLACEMENT_3D('',#551,#443,#444);
#373=AXIS2_PLACEMENT_3D('',#553,#445,#446);
#374=AXIS2_PLACEMENT_3D('',#555,#447,#448);
#375=AXIS2_PLACEMENT_3D('',#556,#449,#450);
#376=AXIS2_PLACEMENT_3D('',#558,#451,#452);
#377=AXIS2_PLACEMENT_3D('',#560,#453,#454);
#378=AXIS2_PLACEMENT_3D('',#561,#455,#456);
#379=AXIS2_PLACEMENT_3D('',#563,#457,#458);
#380=AXIS2_PLACEMENT_3D('',#565,#459,#460);
#381=AXIS2_PLACEMENT_3D('',#574,#465,#466);
#382=AXIS2_PLACEMENT_3D('',#575,#467,#468);
#383=AXIS2_PLACEMENT_3D('',#576,#469,#470);
#384=AXIS2_PLACEMENT_3D('',#577,#471,#472);
#385=AXIS2_PLACEMENT_3D('',#578,#473,#474);
#386=AXIS2_PLACEMENT_3D('',#579,#475,#476);
#387=AXIS2_PLACEMENT_3D('',#580,#477,#478);
#388=AXIS2_PLACEMENT_3D('',#581,#479,#480);
#389=AXIS2_PLACEMENT_3D('',#582,#481,#482);
#390=AXIS2_PLACEMENT_3D('',#583,#483,#484);
#391=AXIS2_PLACEMENT_3D('',#584,#485,#486);
#392=AXIS2_PLACEMENT_3D('',#585,#487,#488);
#393=AXIS2_PLACEMENT_3D('',#586,#489,#490);
#394=AXIS2_PLACEMENT_3D('',#587,#491,#492);
#395=DIRECTION('',(0.,0.,1.));
#396=DIRECTION('',(1.,0.,0.));
#397=DIRECTION('',(0.,0.,1.));
#398=DIRECTION('',(1.,0.,0.));
#399=DIRECTION('',(-1.,0.,0.));
#400=DIRECTION('',(0.,-1.,0.));
#401=DIRECTION('',(-1.,0.,0.));
#402=DIRECTION('',(0.,-1.,0.));
#403=DIRECTION('',(-1.,0.,0.));
#404=DIRECTION('',(0.,0.,1.));
#405=DIRECTION('',(0.,0.,-1.));
#406=DIRECTION('',(0.,-1.,0.));
#407=DIRECTION('',(0.,0.,-1.));
#408=DIRECTION('',(0.,-1.,0.));
#409=DIRECTION('',(0.,0.,1.));
#410=DIRECTION('',(1.,0.,0.));
#411=DIRECTION('',(-1.,0.,0.));
#412=DIRECTION('',(0.,-1.,0.));
#413=DIRECTION('',(-1.,0.,0.));
#414=DIRECTION('',(0.,-1.,0.));
#415=DIRECTION('',(1.,0.,0.));
#416=DIRECTION('',(0.,0.,-1.));
#417=DIRECTION('',(0.,0.,1.));
#418=DIRECTION('',(0.,-1.,0.));
#419=DIRECTION('',(0.,0.,1.));
#420=DIRECTION('',(0.,-1.,0.));
#421=DIRECTION('',(-9.07282152707535E-17,0.,-1.));
#422=DIRECTION('',(-1.,0.,9.07282152707535E-17));
#423=DIRECTION('',(1.,0.,-9.07282152707535E-17));
#424=DIRECTION('',(0.,-1.,0.));
#425=DIRECTION('',(1.,0.,-9.07282152707535E-17));
#426=DIRECTION('',(1.,0.,-8.9418735875093E-17));
#427=DIRECTION('',(-8.9418735875093E-17,0.,-1.));
#428=DIRECTION('',(8.9418735875093E-17,0.,1.));
#429=DIRECTION('',(0.,-1.,0.));
#430=DIRECTION('',(8.9418735875093E-17,0.,1.));
#431=DIRECTION('',(0.,0.,-1.));
#432=DIRECTION('',(-1.,0.,0.));
#433=DIRECTION('',(1.,0.,0.));
#434=DIRECTION('',(1.,0.,0.));
#435=DIRECTION('',(0.,-1.,0.));
#436=DIRECTION('',(0.,0.,-1.));
#437=DIRECTION('',(0.,1.,0.));
#438=DIRECTION('',(0.,0.,1.));
#439=DIRECTION('',(0.,1.,0.));
#440=DIRECTION('',(0.,0.,1.));
#441=DIRECTION('',(0.,-1.,0.));
#442=DIRECTION('',(0.,0.,-1.));
#443=DIRECTION('',(0.,1.,0.));
#444=DIRECTION('',(0.,0.,1.));
#445=DIRECTION('',(0.,1.,0.));
#446=DIRECTION('',(0.,0.,1.));
#447=DIRECTION('',(0.,-1.,0.));
#448=DIRECTION('',(0.,0.,-1.));
#449=DIRECTION('',(0.,1.,0.));
#450=DIRECTION('',(0.,0.,1.));
#451=DIRECTION('',(0.,1.,0.));
#452=DIRECTION('',(0.,0.,1.));
#453=DIRECTION('',(0.,-1.,0.));
#454=DIRECTION('',(0.,0.,-1.));
#455=DIRECTION('',(0.,1.,0.));
#456=DIRECTION('',(0.,0.,1.));
#457=DIRECTION('',(0.,1.,0.));
#458=DIRECTION('',(0.,0.,1.));
#459=DIRECTION('',(-1.,0.,0.));
#460=DIRECTION('',(0.,0.,1.));
#461=DIRECTION('',(0.,0.,-1.));
#462=DIRECTION('',(0.,-1.,0.));
#463=DIRECTION('',(0.,0.,-1.));
#464=DIRECTION('',(0.,-1.,0.));
#465=DIRECTION('',(0.,1.,0.));
#466=DIRECTION('',(-1.,0.,0.));
#467=DIRECTION('',(0.,1.,0.));
#468=DIRECTION('',(0.,0.,1.));
#469=DIRECTION('',(0.,1.,0.));
#470=DIRECTION('',(0.,0.,1.));
#471=DIRECTION('',(0.,1.,0.));
#472=DIRECTION('',(0.,0.,1.));
#473=DIRECTION('',(0.,1.,0.));
#474=DIRECTION('',(0.,0.,1.));
#475=DIRECTION('',(0.,1.,0.));
#476=DIRECTION('',(-1.,0.,0.));
#477=DIRECTION('',(0.,1.,0.));
#478=DIRECTION('',(0.,0.,1.));
#479=DIRECTION('',(0.,1.,0.));
#480=DIRECTION('',(0.,0.,1.));
#481=DIRECTION('',(0.,1.,0.));
#482=DIRECTION('',(0.,0.,1.));
#483=DIRECTION('',(0.,1.,0.));
#484=DIRECTION('',(0.,0.,1.));
#485=DIRECTION('',(0.,1.,0.));
#486=DIRECTION('',(0.,0.,1.));
#487=DIRECTION('',(0.,-1.,0.));
#488=DIRECTION('',(0.,0.,-1.));
#489=DIRECTION('',(0.,-1.,0.));
#490=DIRECTION('',(0.,0.,-1.));
#491=DIRECTION('',(0.,1.,0.));
#492=DIRECTION('',(0.,0.,1.));
#493=CARTESIAN_POINT('',(0.,0.,0.));
#494=CARTESIAN_POINT('',(-0.04475,0.01492,0.01406));
#495=CARTESIAN_POINT('',(-0.04475,0.01492,0.01406));
#496=CARTESIAN_POINT('',(0.00469,0.01492,0.01406));
#497=CARTESIAN_POINT('',(-0.09419,0.01492,0.01406));
#498=CARTESIAN_POINT('',(-0.09419,0.01492,0.01406));
#499=CARTESIAN_POINT('',(-0.09419,0.01192,0.01406));
#500=CARTESIAN_POINT('',(-0.04475,0.01192,0.01406));
#501=CARTESIAN_POINT('',(0.00469,0.01192,0.01406));
#502=CARTESIAN_POINT('',(0.00469,0.01492,0.01406));
#503=CARTESIAN_POINT('',(0.0085,0.01492,-0.021614829342793));
#504=CARTESIAN_POINT('',(0.0085,0.01192,-0.021614829342793));
#505=CARTESIAN_POINT('',(0.0085,0.01192,0.01025));
#506=CARTESIAN_POINT('',(0.0085,0.01192,-0.053479658685586));
#507=CARTESIAN_POINT('',(0.0085,0.01492,-0.053479658685586));
#508=CARTESIAN_POINT('',(0.0085,0.01492,-0.053479658685586));
#509=CARTESIAN_POINT('',(0.0085,0.01492,-0.021614829342793));
#510=CARTESIAN_POINT('',(0.0085,0.01492,0.01025));
#511=CARTESIAN_POINT('',(0.0085,0.01192,0.01025));
#512=CARTESIAN_POINT('',(-0.04475,0.01492,-0.057289658685586));
#513=CARTESIAN_POINT('',(-0.04475,0.01192,-0.057289658685586));
#514=CARTESIAN_POINT('',(0.00469,0.01192,-0.057289658685586));
#515=CARTESIAN_POINT('',(-0.09419,0.01192,-0.057289658685586));
#516=CARTESIAN_POINT('',(-0.09419,0.01492,-0.057289658685586));
#517=CARTESIAN_POINT('',(-0.09419,0.01492,-0.057289658685586));
#518=CARTESIAN_POINT('',(-0.04475,0.01492,-0.057289658685586));
#519=CARTESIAN_POINT('',(0.00469,0.01492,-0.057289658685586));
#520=CARTESIAN_POINT('',(0.00469,0.01492,-0.057289658685586));
#521=CARTESIAN_POINT('',(-0.08266,0.01492,-0.01658));
#522=CARTESIAN_POINT('',(-0.08266,0.01192,-0.01658));
#523=CARTESIAN_POINT('',(-0.08266,0.01192,-0.02628));
#524=CARTESIAN_POINT('',(-0.08266,0.01192,-0.00688));
#525=CARTESIAN_POINT('',(-0.08266,0.01492,-0.02628));
#526=CARTESIAN_POINT('',(-0.08266,0.01492,-0.02628));
#527=CARTESIAN_POINT('',(-0.08266,0.01492,-0.01658));
#528=CARTESIAN_POINT('',(-0.08266,0.01492,-0.00688));
#529=CARTESIAN_POINT('',(-0.08266,0.01492,-0.00688));
#530=CARTESIAN_POINT('',(-0.04442,0.01492,-0.02628));
#531=CARTESIAN_POINT('',(-0.04442,0.01192,-0.02628));
#532=CARTESIAN_POINT('',(-0.00618,0.01192,-0.02628));
#533=CARTESIAN_POINT('',(-0.00618,0.01492,-0.02628));
#534=CARTESIAN_POINT('',(-0.00618,0.01492,-0.02628));
#535=CARTESIAN_POINT('',(-0.04442,0.01492,-0.02628));
#536=CARTESIAN_POINT('',(-0.00618,0.01492,-0.01658));
#537=CARTESIAN_POINT('',(-0.00618,0.01192,-0.01658));
#538=CARTESIAN_POINT('',(-0.00618,0.01192,-0.00688));
#539=CARTESIAN_POINT('',(-0.00618,0.01492,-0.00688));
#540=CARTESIAN_POINT('',(-0.00618,0.01492,-0.00688));
#541=CARTESIAN_POINT('',(-0.00618,0.01492,-0.01658));
#542=CARTESIAN_POINT('',(-0.04442,0.01492,-0.00688));
#543=CARTESIAN_POINT('',(-0.04442,0.01192,-0.00688));
#544=CARTESIAN_POINT('',(-0.04442,0.01492,-0.00688));
#545=CARTESIAN_POINT('',(0.0045,0.01492,0.00728));
#546=CARTESIAN_POINT('',(0.0045,0.01492,0.00728));
#547=CARTESIAN_POINT('',(0.0045,0.01492,0.00888));
#548=CARTESIAN_POINT('',(0.0045,0.01192,0.00728));
#549=CARTESIAN_POINT('',(0.0045,0.01192,0.00888));
#550=CARTESIAN_POINT('',(0.0045,0.01492,-0.053289658685586));
#551=CARTESIAN_POINT('',(0.0045,0.01492,-0.053289658685586));
#552=CARTESIAN_POINT('',(0.0045,0.01492,-0.051689658685586));
#553=CARTESIAN_POINT('',(0.0045,0.01192,-0.053289658685586));
#554=CARTESIAN_POINT('',(0.0045,0.01192,-0.051689658685586));
#555=CARTESIAN_POINT('',(-0.094,0.01492,-0.053289658685586));
#556=CARTESIAN_POINT('',(-0.094,0.01492,-0.053289658685586));
#557=CARTESIAN_POINT('',(-0.094,0.01492,-0.051689658685586));
#558=CARTESIAN_POINT('',(-0.094,0.01192,-0.053289658685586));
#559=CARTESIAN_POINT('',(-0.094,0.01192,-0.051689658685586));
#560=CARTESIAN_POINT('',(-0.094,0.01492,0.00728));
#561=CARTESIAN_POINT('',(-0.094,0.01492,0.00728));
#562=CARTESIAN_POINT('',(-0.094,0.01492,0.00888));
#563=CARTESIAN_POINT('',(-0.094,0.01192,0.00728));
#564=CARTESIAN_POINT('',(-0.094,0.01192,0.00888));
#565=CARTESIAN_POINT('',(-0.098,0.01492,-0.021614829342793));
#566=CARTESIAN_POINT('',(-0.098,0.01492,-0.021614829342793));
#567=CARTESIAN_POINT('',(-0.098,0.01492,0.01025));
#568=CARTESIAN_POINT('',(-0.098,0.01492,-0.053479658685586));
#569=CARTESIAN_POINT('',(-0.098,0.01192,-0.053479658685586));
#570=CARTESIAN_POINT('',(-0.098,0.01192,-0.053479658685586));
#571=CARTESIAN_POINT('',(-0.098,0.01192,-0.021614829342793));
#572=CARTESIAN_POINT('',(-0.098,0.01192,0.01025));
#573=CARTESIAN_POINT('',(-0.098,0.01492,0.01025));
#574=CARTESIAN_POINT('',(-0.04475,0.01492,-0.021614829342793));
#575=CARTESIAN_POINT('',(-0.09419,0.01492,-0.053479658685586));
#576=CARTESIAN_POINT('',(-0.09419,0.01492,0.01025));
#577=CARTESIAN_POINT('',(0.00469,0.01492,0.01025));
#578=CARTESIAN_POINT('',(0.00469,0.01492,-0.053479658685586));
#579=CARTESIAN_POINT('',(-0.04475,0.01192,-0.021614829342793));
#580=CARTESIAN_POINT('',(-0.09419,0.01192,-0.053479658685586));
#581=CARTESIAN_POINT('',(0.00469,0.01192,-0.053479658685586));
#582=CARTESIAN_POINT('',(0.00469,0.01192,0.01025));
#583=CARTESIAN_POINT('',(-0.09419,0.01192,0.01025));
#584=CARTESIAN_POINT('',(-0.09419,0.01492,-0.053479658685586));
#585=CARTESIAN_POINT('',(-0.09419,0.01492,0.01025));
#586=CARTESIAN_POINT('',(0.00469,0.01492,-0.053479658685586));
#587=CARTESIAN_POINT('',(0.00469,0.01492,0.01025));
#588=MECHANICAL_DESIGN_GEOMETRIC_PRESENTATION_REPRESENTATION('',(#349),
#589);
#589=(
GEOMETRIC_REPRESENTATION_CONTEXT(3)
GLOBAL_UNCERTAINTY_ASSIGNED_CONTEXT((#590))
GLOBAL_UNIT_ASSIGNED_CONTEXT((#593,#592,#591))
REPRESENTATION_CONTEXT('Part 9','TOP_LEVEL_ASSEMBLY_PART')
);
#590=UNCERTAINTY_MEASURE_WITH_UNIT(LENGTH_MEASURE(1.E-8),#593,
'DISTANCE_ACCURACY_VALUE','Maximum Tolerance applied to model');
#591=(
NAMED_UNIT(*)
SI_UNIT($,.STERADIAN.)
SOLID_ANGLE_UNIT()
);
#592=(
NAMED_UNIT(*)
PLANE_ANGLE_UNIT()
SI_UNIT($,.RADIAN.)
);
#593=(
LENGTH_UNIT()
NAMED_UNIT(*)
SI_UNIT($,.METRE.)
);
#594=PRODUCT_DEFINITION_SHAPE('','',#595);
#595=PRODUCT_DEFINITION('','',#597,#596);
#596=PRODUCT_DEFINITION_CONTEXT('',#603,'design');
#597=PRODUCT_DEFINITION_FORMATION_WITH_SPECIFIED_SOURCE('','',#599,
 .NOT_KNOWN.);
#598=PRODUCT_RELATED_PRODUCT_CATEGORY('','',(#599));
#599=PRODUCT('Part 9','Part 9','Part 9',(#601));
#600=PRODUCT_CATEGORY('','');
#601=PRODUCT_CONTEXT('',#603,'mechanical');
#602=APPLICATION_PROTOCOL_DEFINITION('international standard',
'ap242_managed_model_based_3d_engineering',2020,#603);
#603=APPLICATION_CONTEXT('managed model based 3d engineering');
ENDSEC;
END-ISO-10303-21;
